<svg xmlns="http://www.w3.org/2000/svg" xmlns:xlink="http://www.w3.org/1999/xlink" xmlns:lucid="lucid" width="1727.33" height="1318.4"><g transform="translate(-413.6666666666665 -1241.6015625)" lucid:page-tab-id="0_0"><path d="M0 1000h2500v2000H0z" fill="#fff"/><path d="M414.67 1340a6 6 0 0 1 6-6H2134a6 6 0 0 1 6 6v1213a6 6 0 0 1-6 6H420.67a6 6 0 0 1-6-6z" stroke="#3a414a" stroke-width="2" fill="#fff"/><path d="M414.67 1247.6a6 6 0 0 1 6-6H823.9a6 6 0 0 1 6 6v68.4a6 6 0 0 1-6 6H420.68a6 6 0 0 1-6-6z" fill="#3a414a"/><use xlink:href="#a" transform="matrix(1,0,0,1,430.6666666666665,1257.6015625) translate(0 39.05078125)"/><use xlink:href="#b" transform="matrix(1,0,0,1,430.6666666666665,1257.6015625) translate(11.25 39.05078125)"/><use xlink:href="#c" transform="matrix(1,0,0,1,430.6666666666665,1257.6015625) translate(242.9296875 39.05078125)"/><path d="M494.67 2303a12 12 0 0 1 12-12h336a12 12 0 0 1 12 12v164a12 12 0 0 1-12 12h-336a12 12 0 0 1-12-12z" fill="#fff0fb"/><path d="M494.67 2331h360v38h-360z" fill="#fff0fb"/><path d="M494.67 2368h360v38h-360z" fill="#e6d8e2"/><path d="M494.67 2405h360v38h-360z" fill="#fff0fb"/><path d="M494.67 2442h360v25a12 12 0 0 1-12 12h-336a12 12 0 0 1-12-12z" fill="#e6d8e2"/><path d="M495.67 2331h358-358zM494.67 2303a12 12 0 0 1 12-12h336a12 12 0 0 1 12 12v164a12 12 0 0 1-12 12h-336a12 12 0 0 1-12-12zM674.67 2332v146z" stroke="#ff80df" stroke-width="2" fill="none"/><use xlink:href="#d" transform="matrix(1,0,0,1,504.6666666666665,2291) translate(130.91579861111111 28.08376736111111)"/><use xlink:href="#e" transform="matrix(1,0,0,1,499.6666666666665,2333.5) translate(0 24.08376736111111)"/><use xlink:href="#f" transform="matrix(1,0,0,1,499.6666666666665,2333.5) translate(88.56336805555556 24.08376736111111)"/><use xlink:href="#g" transform="matrix(1,0,0,1,679.6666666666665,2333.5) translate(0 24.08376736111111)"/><use xlink:href="#h" transform="matrix(1,0,0,1,499.6666666666665,2370.5) translate(0 24.08376736111111)"/><use xlink:href="#i" transform="matrix(1,0,0,1,679.6666666666665,2370.5) translate(0 24.08376736111111)"/><use xlink:href="#j" transform="matrix(1,0,0,1,499.6666666666665,2407.5) translate(0 24.08376736111111)"/><use xlink:href="#i" transform="matrix(1,0,0,1,679.6666666666665,2407.5) translate(0 24.08376736111111)"/><use xlink:href="#k" transform="matrix(1,0,0,1,499.6666666666665,2444.5) translate(0 24.08376736111111)"/><use xlink:href="#l" transform="matrix(1,0,0,1,679.6666666666665,2444.5) translate(0 24.08376736111111)"/><path d="M512.67 1426a12 12 0 0 1 12-12h300a12 12 0 0 1 12 12v191a12 12 0 0 1-12 12h-300a12 12 0 0 1-12-12z" fill="#edf5ff"/><path d="M512.67 1454h324v65h-324z" fill="#edf5ff"/><path d="M512.67 1518h324v38h-324z" fill="#d5dde6"/><path d="M512.67 1555h324v38h-324z" fill="#edf5ff"/><path d="M512.67 1592h324v25a12 12 0 0 1-12 12h-300a12 12 0 0 1-12-12z" fill="#d5dde6"/><path d="M513.67 1454h322-322zM512.67 1426a12 12 0 0 1 12-12h300a12 12 0 0 1 12 12v191a12 12 0 0 1-12 12h-300a12 12 0 0 1-12-12zM674.67 1455v173z" stroke="#6db1ff" stroke-width="2" fill="none"/><use xlink:href="#m" transform="matrix(1,0,0,1,522.6666666666665,1414) translate(86.11458333333333 28.08376736111111)"/><use xlink:href="#n" transform="matrix(1,0,0,1,517.6666666666665,1456.5) translate(0 24.139756944444443)"/><use xlink:href="#f" transform="matrix(1,0,0,1,517.6666666666665,1456.5) translate(0 51.02777777777778)"/><use xlink:href="#g" transform="matrix(1,0,0,1,679.6666666666665,1456.5) translate(0 37.583767361111114)"/><use xlink:href="#h" transform="matrix(1,0,0,1,517.6666666666665,1520.5) translate(0 24.08376736111111)"/><use xlink:href="#i" transform="matrix(1,0,0,1,679.6666666666665,1520.5) translate(0 24.08376736111111)"/><use xlink:href="#j" transform="matrix(1,0,0,1,517.6666666666665,1557.5) translate(0 24.08376736111111)"/><use xlink:href="#i" transform="matrix(1,0,0,1,679.6666666666665,1557.5) translate(0 24.08376736111111)"/><use xlink:href="#o" transform="matrix(1,0,0,1,517.6666666666665,1594.5) translate(0 24.08376736111111)"/><use xlink:href="#i" transform="matrix(1,0,0,1,679.6666666666665,1594.5) translate(0 24.08376736111111)"/><path d="M1622.67 1883a12 12 0 0 1 12-12h300a12 12 0 0 1 12 12v154a12 12 0 0 1-12 12h-300a12 12 0 0 1-12-12z" fill="#f4d9ff"/><path d="M1622.67 1911h324v65h-324z" fill="#f4d9ff"/><path d="M1622.67 1975h324v38h-324z" fill="#dcc3e6"/><path d="M1622.67 2012h324v25a12 12 0 0 1-12 12h-300a12 12 0 0 1-12-12z" fill="#f4d9ff"/><path d="M1623.67 1911h322-322zM1622.67 1883a12 12 0 0 1 12-12h300a12 12 0 0 1 12 12v154a12 12 0 0 1-12 12h-300a12 12 0 0 1-12-12zM1784.67 1912v136z" stroke="#e08fff" stroke-width="2" fill="none"/><use xlink:href="#p" transform="matrix(1,0,0,1,1632.6666666666665,1871) translate(90.36805555555556 28.08376736111111)"/><use xlink:href="#q" transform="matrix(1,0,0,1,1627.6666666666665,1913.5) translate(0 24.139756944444443)"/><use xlink:href="#f" transform="matrix(1,0,0,1,1627.6666666666665,1913.5) translate(0 51.02777777777778)"/><use xlink:href="#g" transform="matrix(1,0,0,1,1789.6666666666665,1913.5) translate(0 37.583767361111114)"/><use xlink:href="#h" transform="matrix(1,0,0,1,1627.6666666666665,1977.5) translate(0 24.08376736111111)"/><use xlink:href="#i" transform="matrix(1,0,0,1,1789.6666666666665,1977.5) translate(0 24.08376736111111)"/><use xlink:href="#r" transform="matrix(1,0,0,1,1627.6666666666665,2014.5) translate(0 24.08376736111111)"/><use xlink:href="#g" transform="matrix(1,0,0,1,1789.6666666666665,2014.5) translate(0 24.08376736111111)"/><path d="M1054.67 1841a12 12 0 0 1 12-12h344a12 12 0 0 1 12 12v238a12 12 0 0 1-12 12h-344a12 12 0 0 1-12-12z" fill="#fff3d9"/><path d="M1054.67 1869h368v38h-368z" fill="#fff3d9"/><path d="M1054.67 1906h368v38h-368z" fill="#e6dbc3"/><path d="M1054.67 1943h368v38h-368z" fill="#fff3d9"/><path d="M1054.67 1980h368v38h-368z" fill="#e6dbc3"/><path d="M1054.67 2017h368v38h-368z" fill="#fff3d9"/><path d="M1054.67 2054h368v25a12 12 0 0 1-12 12h-344a12 12 0 0 1-12-12z" fill="#e6dbc3"/><path d="M1055.67 1869h366-366zM1054.67 1841a12 12 0 0 1 12-12h344a12 12 0 0 1 12 12v238a12 12 0 0 1-12 12h-344a12 12 0 0 1-12-12zM1238.67 1870v220z" stroke="#fcce14" stroke-width="2" fill="none"/><use xlink:href="#s" transform="matrix(1,0,0,1,1064.6666666666665,1829) translate(143.56922743055554 28.08376736111111)"/><use xlink:href="#t" transform="matrix(1,0,0,1,1059.6666666666665,1871.5) translate(0 24.08376736111111)"/><use xlink:href="#f" transform="matrix(1,0,0,1,1059.6666666666665,1871.5) translate(78.17925347222221 24.08376736111111)"/><use xlink:href="#g" transform="matrix(1,0,0,1,1243.6666666666665,1871.5) translate(0 24.08376736111111)"/><use xlink:href="#u" transform="matrix(1,0,0,1,1059.6666666666665,1908.5) translate(0 24.08376736111111)"/><use xlink:href="#v" transform="matrix(1,0,0,1,1243.6666666666665,1908.5) translate(0 24.08376736111111)"/><use xlink:href="#w" transform="matrix(1,0,0,1,1059.6666666666665,1945.5) translate(0 24.08376736111111)"/><use xlink:href="#l" transform="matrix(1,0,0,1,1243.6666666666665,1945.5) translate(0 24.08376736111111)"/><use xlink:href="#e" transform="matrix(1,0,0,1,1059.6666666666665,1982.5) translate(0 24.08376736111111)"/><use xlink:href="#x" transform="matrix(1,0,0,1,1059.6666666666665,1982.5) translate(88.56336805555556 24.08376736111111)"/><use xlink:href="#g" transform="matrix(1,0,0,1,1243.6666666666665,1982.5) translate(0 24.08376736111111)"/><use xlink:href="#y" transform="matrix(1,0,0,1,1059.6666666666665,2019.5) translate(0 24.08376736111111)"/><use xlink:href="#x" transform="matrix(1,0,0,1,1059.6666666666665,2019.5) translate(129.45963541666666 24.08376736111111)"/><use xlink:href="#g" transform="matrix(1,0,0,1,1243.6666666666665,2019.5) translate(0 24.08376736111111)"/><use xlink:href="#z" transform="matrix(1,0,0,1,1059.6666666666665,2056.5) translate(0 24.08376736111111)"/><use xlink:href="#x" transform="matrix(1,0,0,1,1059.6666666666665,2056.5) translate(129.79600694444446 24.08376736111111)"/><use xlink:href="#g" transform="matrix(1,0,0,1,1243.6666666666665,2056.5) translate(0 24.08376736111111)"/><path d="M989.98 2304.67l-.1 1.17-.3 1.2-.47 1.17-.64 1.08-.82.95-.95.82-1.08.65-1.15.48-1.22.3-1.17.08h-106.4v-3.95H981.9l.7-.04.62-.15.6-.23.52-.33.48-.4.4-.5.34-.53.24-.57.15-.6.05-.72V2123.6H990zm23.7-454.3h-19.6l-.7.06-.62.14-.6.25-.52.33-.48.4-.4.48-.34.54-.24.6-.15.6-.05.7v247.6H986v-247.75l.1-1.17.3-1.22.47-1.16.64-1.06.82-.95.95-.8 1.08-.66 1.15-.5 1.22-.3 1.17-.08h19.75z" stroke="#5e5e5e" stroke-width=".05" fill="#5e5e5e"/><path d="M867.64 2308.6h6.05v-8h3.94v20h-3.95v-8.04h-6.06v8.03h-3.95v-8.04h-8.03v-3.95h8.02v-8h3.94z" stroke="#5e5e5e" stroke-width=".05" fill="#5e5e5e"/><path d="M1025.93 1838.9l2.75 1.43 2.16 2.16 1.42 2.74.5 3.16-.5 3.16-1.42 2.74-2.16 2.17-2.75 1.42-3.16.5-3.16-.5-2.73-1.43-2.17-2.17-1.42-2.74-.5-3.16.5-3.16 1.42-2.75 2.17-2.17 2.74-1.42 3.17-.5zm26.84 19.5l-20-10m20-10l-20 10m0 0h20" fill="#fff"/><path d="M1026.56 1837l3.3 1.7 2.6 2.6 1.7 3.3.13.83 17.6-8.8 1.75 3.53-12.5 6.26h11.62v3.95h-11.63l12.5 6.26-1.75 3.53-17.6-8.8-.14.82-1.7 3.3-2.6 2.6-3.3 1.7-3.8.62-3.77-.6-3.3-1.72-2.6-2.6-1.72-3.3-.6-3.78.6-3.8 1.7-3.3 2.6-2.6 3.3-1.7 3.8-.6zm-6.32 3.8l-2.2 1.14-1.72 1.73-1.14 2.2-.4 2.53.4 2.53 1.14 2.2 1.73 1.72 2.2 1.14 2.52.4 2.54-.4 2.2-1.15 1.73-1.73 1.13-2.2.4-2.52-.4-2.54-1.13-2.2-1.73-1.72-2.2-1.13-2.53-.4z" stroke="#5e5e5e" stroke-width=".05" fill="#5e5e5e"/><use xlink:href="#A" transform="matrix(1,0,0,1,961.8020833333331,2102.0709390096617) translate(0 17.22222222222222)"/><path d="M1601.67 1888.6v3.95h-55.97v-3.95zm-136.03-19.54h-3.95v-20.66h3.94z" stroke="#5e5e5e" stroke-width=".05" fill="#5e5e5e"/><path d="M1603.64 1888.6h6.05v-8.03h3.94v8.03h8.03v3.95h-8.03v8.02h-3.95v-8.02h-6.06v8.02h-3.95v-20h3.94z" stroke="#5e5e5e" stroke-width=".05" fill="#5e5e5e"/><path d="M1457.72 1838.9l2.75 1.43 2.16 2.16 1.42 2.74.5 3.16-.5 3.16-1.42 2.74-2.16 2.17-2.75 1.42-3.16.5-3.16-.5-2.75-1.43-2.16-2.17-1.43-2.74-.5-3.16.5-3.16 1.42-2.75 2.15-2.17 2.75-1.42 3.16-.5zm-33.16 19.5l20-10m-20-10l20 10m0 0h-20" fill="#fff"/><path d="M1458.35 1837l3.3 1.7 2.6 2.6 1.7 3.3.6 3.8-.6 3.78-1.7 3.3-2.6 2.6-3.3 1.7-3.8.62-3.78-.6-3.3-1.72-2.6-2.6-1.7-3.3-.13-.8-17.6 8.78-1.76-3.53 12.5-6.26h-11.62v-3.95h11.63l-12.52-6.26 1.76-3.53 17.6 8.8.13-.82 1.7-3.3 2.6-2.6 3.3-1.7 3.8-.6zm-6.32 3.8l-2.2 1.14-1.73 1.73-1.13 2.2-.4 2.53.4 2.53 1.13 2.2 1.74 1.72 2.2 1.14 2.52.4 2.54-.4 2.2-1.15 1.72-1.73 1.13-2.2.4-2.52-.4-2.54-1.13-2.2-1.73-1.72-2.2-1.13-2.54-.4z" stroke="#5e5e5e" stroke-width=".05" fill="#5e5e5e"/><use xlink:href="#B" transform="matrix(1,0,0,1,1457.4590755837357,1869.0636574074074) translate(0 17.22222222222222)"/><use xlink:href="#C" transform="matrix(1,0,0,1,1457.4590755837357,1869.0636574074074) translate(0 38.732638888888886)"/><path d="M923.3 1842.32l.06.7.15.62.25.58.33.54.4.48.5.4.53.34.6.24.6.15.7.05h86.27v3.95h-86.4l-1.18-.1-1.23-.28-1.16-.5-1.06-.65-.95-.8-.82-.96-.66-1.08-.48-1.16-.3-1.2-.08-1.2v-166.44h3.95zm-6.72-410.74l1.22.3 1.16.47 1.06.65.96.82.8.95.67 1.07.47 1.15.3 1.2.1 1.18v215.13h-3.96v-214.96l-.06-.7-.14-.62-.25-.6-.3-.52-.43-.48-.47-.4-.54-.34-.58-.24-.62-.15-.7-.07h-57.6v-3.95h57.75z" stroke="#5e5e5e" stroke-width=".05" fill="#5e5e5e"/><path d="M849.64 1431.48h6.05v-8.02h3.94v20h-3.95v-8.03h-6.06v8.03h-3.95v-8.03h-8.03v-3.95h8.02v-8.02h3.94z" stroke="#5e5e5e" stroke-width=".05" fill="#5e5e5e"/><path d="M1025.93 1838.9l2.75 1.43 2.16 2.16 1.42 2.74.5 3.16-.5 3.16-1.42 2.74-2.16 2.17-2.75 1.42-3.16.5-3.16-.5-2.73-1.43-2.17-2.17-1.42-2.74-.5-3.16.5-3.16 1.42-2.75 2.17-2.17 2.74-1.42 3.17-.5zm26.84 19.5l-20-10m20-10l-20 10m0 0h20" fill="#fff"/><path d="M1026.56 1837l3.3 1.7 2.6 2.6 1.7 3.3.13.83 17.6-8.8 1.75 3.53-12.5 6.26h11.62v3.95h-11.63l12.5 6.26-1.75 3.53-17.6-8.8-.14.82-1.7 3.3-2.6 2.6-3.3 1.7-3.8.62-3.77-.6-3.3-1.72-2.6-2.6-1.72-3.3-.6-3.78.6-3.8 1.7-3.3 2.6-2.6 3.3-1.7 3.8-.6zm-6.32 3.8l-2.2 1.14-1.72 1.73-1.14 2.2-.4 2.53.4 2.53 1.14 2.2 1.73 1.72 2.2 1.14 2.52.4 2.54-.4 2.2-1.15 1.73-1.73 1.13-2.2.4-2.52-.4-2.54-1.13-2.2-1.73-1.72-2.2-1.13-2.53-.4z" stroke="#5e5e5e" stroke-width=".05" fill="#5e5e5e"/><use xlink:href="#D" transform="matrix(1,0,0,1,888.1302083333331,1654.5064328368223) translate(0 17.22222222222222)"/><path d="M414.67 1340a6 6 0 0 1 6-6H2134a6 6 0 0 1 6 6v1213a6 6 0 0 1-6 6H420.67a6 6 0 0 1-6-6z" stroke="#3a414a" stroke-width="2" fill="#fff"/><path d="M414.67 1247.6a6 6 0 0 1 6-6H823.9a6 6 0 0 1 6 6v68.4a6 6 0 0 1-6 6H420.68a6 6 0 0 1-6-6z" fill="#3a414a"/><use xlink:href="#a" transform="matrix(1,0,0,1,430.6666666666665,1257.6015625) translate(0 39.05078125)"/><use xlink:href="#b" transform="matrix(1,0,0,1,430.6666666666665,1257.6015625) translate(11.25 39.05078125)"/><use xlink:href="#c" transform="matrix(1,0,0,1,430.6666666666665,1257.6015625) translate(242.9296875 39.05078125)"/><path d="M494.67 2303a12 12 0 0 1 12-12h336a12 12 0 0 1 12 12v164a12 12 0 0 1-12 12h-336a12 12 0 0 1-12-12z" fill="#fff0fb"/><path d="M494.67 2331h360v38h-360z" fill="#fff0fb"/><path d="M494.67 2368h360v38h-360z" fill="#e6d8e2"/><path d="M494.67 2405h360v38h-360z" fill="#fff0fb"/><path d="M494.67 2442h360v25a12 12 0 0 1-12 12h-336a12 12 0 0 1-12-12z" fill="#e6d8e2"/><path d="M495.67 2331h358-358zM494.67 2303a12 12 0 0 1 12-12h336a12 12 0 0 1 12 12v164a12 12 0 0 1-12 12h-336a12 12 0 0 1-12-12zM674.67 2332v146z" stroke="#ff80df" stroke-width="2" fill="none"/><use xlink:href="#d" transform="matrix(1,0,0,1,504.6666666666665,2291) translate(130.91579861111111 28.08376736111111)"/><use xlink:href="#e" transform="matrix(1,0,0,1,499.6666666666665,2333.5) translate(0 24.08376736111111)"/><use xlink:href="#f" transform="matrix(1,0,0,1,499.6666666666665,2333.5) translate(88.56336805555556 24.08376736111111)"/><use xlink:href="#g" transform="matrix(1,0,0,1,679.6666666666665,2333.5) translate(0 24.08376736111111)"/><use xlink:href="#h" transform="matrix(1,0,0,1,499.6666666666665,2370.5) translate(0 24.08376736111111)"/><use xlink:href="#i" transform="matrix(1,0,0,1,679.6666666666665,2370.5) translate(0 24.08376736111111)"/><use xlink:href="#j" transform="matrix(1,0,0,1,499.6666666666665,2407.5) translate(0 24.08376736111111)"/><use xlink:href="#i" transform="matrix(1,0,0,1,679.6666666666665,2407.5) translate(0 24.08376736111111)"/><use xlink:href="#k" transform="matrix(1,0,0,1,499.6666666666665,2444.5) translate(0 24.08376736111111)"/><use xlink:href="#l" transform="matrix(1,0,0,1,679.6666666666665,2444.5) translate(0 24.08376736111111)"/><path d="M512.67 1426a12 12 0 0 1 12-12h300a12 12 0 0 1 12 12v191a12 12 0 0 1-12 12h-300a12 12 0 0 1-12-12z" fill="#edf5ff"/><path d="M512.67 1454h324v65h-324z" fill="#edf5ff"/><path d="M512.67 1518h324v38h-324z" fill="#d5dde6"/><path d="M512.67 1555h324v38h-324z" fill="#edf5ff"/><path d="M512.67 1592h324v25a12 12 0 0 1-12 12h-300a12 12 0 0 1-12-12z" fill="#d5dde6"/><path d="M513.67 1454h322-322zM512.67 1426a12 12 0 0 1 12-12h300a12 12 0 0 1 12 12v191a12 12 0 0 1-12 12h-300a12 12 0 0 1-12-12zM674.67 1455v173z" stroke="#6db1ff" stroke-width="2" fill="none"/><use xlink:href="#m" transform="matrix(1,0,0,1,522.6666666666665,1414) translate(86.11458333333333 28.08376736111111)"/><use xlink:href="#n" transform="matrix(1,0,0,1,517.6666666666665,1456.5) translate(0 24.139756944444443)"/><use xlink:href="#f" transform="matrix(1,0,0,1,517.6666666666665,1456.5) translate(0 51.02777777777778)"/><use xlink:href="#g" transform="matrix(1,0,0,1,679.6666666666665,1456.5) translate(0 37.583767361111114)"/><use xlink:href="#h" transform="matrix(1,0,0,1,517.6666666666665,1520.5) translate(0 24.08376736111111)"/><use xlink:href="#i" transform="matrix(1,0,0,1,679.6666666666665,1520.5) translate(0 24.08376736111111)"/><use xlink:href="#j" transform="matrix(1,0,0,1,517.6666666666665,1557.5) translate(0 24.08376736111111)"/><use xlink:href="#i" transform="matrix(1,0,0,1,679.6666666666665,1557.5) translate(0 24.08376736111111)"/><use xlink:href="#o" transform="matrix(1,0,0,1,517.6666666666665,1594.5) translate(0 24.08376736111111)"/><use xlink:href="#i" transform="matrix(1,0,0,1,679.6666666666665,1594.5) translate(0 24.08376736111111)"/><path d="M1622.67 1883a12 12 0 0 1 12-12h300a12 12 0 0 1 12 12v154a12 12 0 0 1-12 12h-300a12 12 0 0 1-12-12z" fill="#f4d9ff"/><path d="M1622.67 1911h324v65h-324z" fill="#f4d9ff"/><path d="M1622.67 1975h324v38h-324z" fill="#dcc3e6"/><path d="M1622.67 2012h324v25a12 12 0 0 1-12 12h-300a12 12 0 0 1-12-12z" fill="#f4d9ff"/><path d="M1623.67 1911h322-322zM1622.67 1883a12 12 0 0 1 12-12h300a12 12 0 0 1 12 12v154a12 12 0 0 1-12 12h-300a12 12 0 0 1-12-12zM1784.67 1912v136z" stroke="#e08fff" stroke-width="2" fill="none"/><use xlink:href="#p" transform="matrix(1,0,0,1,1632.6666666666665,1871) translate(90.36805555555556 28.08376736111111)"/><use xlink:href="#q" transform="matrix(1,0,0,1,1627.6666666666665,1913.5) translate(0 24.139756944444443)"/><use xlink:href="#f" transform="matrix(1,0,0,1,1627.6666666666665,1913.5) translate(0 51.02777777777778)"/><use xlink:href="#g" transform="matrix(1,0,0,1,1789.6666666666665,1913.5) translate(0 37.583767361111114)"/><use xlink:href="#h" transform="matrix(1,0,0,1,1627.6666666666665,1977.5) translate(0 24.08376736111111)"/><use xlink:href="#i" transform="matrix(1,0,0,1,1789.6666666666665,1977.5) translate(0 24.08376736111111)"/><use xlink:href="#r" transform="matrix(1,0,0,1,1627.6666666666665,2014.5) translate(0 24.08376736111111)"/><use xlink:href="#g" transform="matrix(1,0,0,1,1789.6666666666665,2014.5) translate(0 24.08376736111111)"/><path d="M1054.67 1841a12 12 0 0 1 12-12h344a12 12 0 0 1 12 12v238a12 12 0 0 1-12 12h-344a12 12 0 0 1-12-12z" fill="#fff3d9"/><path d="M1054.67 1869h368v38h-368z" fill="#fff3d9"/><path d="M1054.67 1906h368v38h-368z" fill="#e6dbc3"/><path d="M1054.67 1943h368v38h-368z" fill="#fff3d9"/><path d="M1054.67 1980h368v38h-368z" fill="#e6dbc3"/><path d="M1054.67 2017h368v38h-368z" fill="#fff3d9"/><path d="M1054.67 2054h368v25a12 12 0 0 1-12 12h-344a12 12 0 0 1-12-12z" fill="#e6dbc3"/><path d="M1055.67 1869h366-366zM1054.67 1841a12 12 0 0 1 12-12h344a12 12 0 0 1 12 12v238a12 12 0 0 1-12 12h-344a12 12 0 0 1-12-12zM1238.67 1870v220z" stroke="#fcce14" stroke-width="2" fill="none"/><use xlink:href="#s" transform="matrix(1,0,0,1,1064.6666666666665,1829) translate(143.56922743055554 28.08376736111111)"/><use xlink:href="#t" transform="matrix(1,0,0,1,1059.6666666666665,1871.5) translate(0 24.08376736111111)"/><use xlink:href="#f" transform="matrix(1,0,0,1,1059.6666666666665,1871.5) translate(78.17925347222221 24.08376736111111)"/><use xlink:href="#g" transform="matrix(1,0,0,1,1243.6666666666665,1871.5) translate(0 24.08376736111111)"/><use xlink:href="#u" transform="matrix(1,0,0,1,1059.6666666666665,1908.5) translate(0 24.08376736111111)"/><use xlink:href="#v" transform="matrix(1,0,0,1,1243.6666666666665,1908.5) translate(0 24.08376736111111)"/><use xlink:href="#w" transform="matrix(1,0,0,1,1059.6666666666665,1945.5) translate(0 24.08376736111111)"/><use xlink:href="#l" transform="matrix(1,0,0,1,1243.6666666666665,1945.5) translate(0 24.08376736111111)"/><use xlink:href="#e" transform="matrix(1,0,0,1,1059.6666666666665,1982.5) translate(0 24.08376736111111)"/><use xlink:href="#x" transform="matrix(1,0,0,1,1059.6666666666665,1982.5) translate(88.56336805555556 24.08376736111111)"/><use xlink:href="#g" transform="matrix(1,0,0,1,1243.6666666666665,1982.5) translate(0 24.08376736111111)"/><use xlink:href="#y" transform="matrix(1,0,0,1,1059.6666666666665,2019.5) translate(0 24.08376736111111)"/><use xlink:href="#x" transform="matrix(1,0,0,1,1059.6666666666665,2019.5) translate(129.45963541666666 24.08376736111111)"/><use xlink:href="#g" transform="matrix(1,0,0,1,1243.6666666666665,2019.5) translate(0 24.08376736111111)"/><g><use xlink:href="#z" transform="matrix(1,0,0,1,1059.6666666666665,2056.5) translate(0 24.08376736111111)"/><use xlink:href="#x" transform="matrix(1,0,0,1,1059.6666666666665,2056.5) translate(129.79600694444446 24.08376736111111)"/></g><g><use xlink:href="#g" transform="matrix(1,0,0,1,1243.6666666666665,2056.5) translate(0 24.08376736111111)"/></g><path d="M989.98 2304.67l-.1 1.17-.3 1.2-.47 1.17-.64 1.08-.82.95-.95.82-1.08.65-1.15.48-1.22.3-1.17.08h-106.4v-3.95H981.9l.7-.04.62-.15.6-.23.52-.33.48-.4.4-.5.34-.53.24-.57.15-.6.05-.72V2123.6H990zm23.7-454.3h-19.6l-.7.06-.62.14-.6.25-.52.33-.48.4-.4.48-.34.54-.24.6-.15.6-.05.7v247.6H986v-247.75l.1-1.17.3-1.22.47-1.16.64-1.06.82-.95.95-.8 1.08-.66 1.15-.5 1.22-.3 1.17-.08h19.75z" stroke="#5e5e5e" stroke-width=".05" fill="#5e5e5e"/><path d="M867.64 2308.6h6.05v-8h3.94v20h-3.95v-8.04h-6.06v8.03h-3.95v-8.04h-8.03v-3.95h8.02v-8h3.94z" stroke="#5e5e5e" stroke-width=".05" fill="#5e5e5e"/><path d="M1025.93 1838.9l2.75 1.43 2.16 2.16 1.42 2.74.5 3.16-.5 3.16-1.42 2.74-2.16 2.17-2.75 1.42-3.16.5-3.16-.5-2.73-1.43-2.17-2.17-1.42-2.74-.5-3.16.5-3.16 1.42-2.75 2.17-2.17 2.74-1.42 3.17-.5zm26.84 19.5l-20-10m20-10l-20 10m0 0h20" fill="#fff"/><path d="M1026.56 1837l3.3 1.7 2.6 2.6 1.7 3.3.13.83 17.6-8.8 1.75 3.53-12.5 6.26h11.62v3.95h-11.63l12.5 6.26-1.75 3.53-17.6-8.8-.14.82-1.7 3.3-2.6 2.6-3.3 1.7-3.8.62-3.77-.6-3.3-1.72-2.6-2.6-1.72-3.3-.6-3.78.6-3.8 1.7-3.3 2.6-2.6 3.3-1.7 3.8-.6zm-6.32 3.8l-2.2 1.14-1.72 1.73-1.14 2.2-.4 2.53.4 2.53 1.14 2.2 1.73 1.72 2.2 1.14 2.52.4 2.54-.4 2.2-1.15 1.73-1.73 1.13-2.2.4-2.52-.4-2.54-1.13-2.2-1.73-1.72-2.2-1.13-2.53-.4z" stroke="#5e5e5e" stroke-width=".05" fill="#5e5e5e"/><g><use xlink:href="#A" transform="matrix(1,0,0,1,961.8020833333331,2102.0709390096617) translate(0 17.22222222222222)"/></g><path d="M1601.67 1888.6v3.95h-55.97v-3.95zm-136.03-19.54h-3.95v-20.66h3.94z" stroke="#5e5e5e" stroke-width=".05" fill="#5e5e5e"/><path d="M1603.64 1888.6h6.05v-8.03h3.94v8.03h8.03v3.95h-8.03v8.02h-3.95v-8.02h-6.06v8.02h-3.95v-20h3.94z" stroke="#5e5e5e" stroke-width=".05" fill="#5e5e5e"/><path d="M1457.72 1838.9l2.75 1.43 2.16 2.16 1.42 2.74.5 3.16-.5 3.16-1.42 2.74-2.16 2.17-2.75 1.42-3.16.5-3.16-.5-2.75-1.43-2.16-2.17-1.43-2.74-.5-3.16.5-3.16 1.42-2.75 2.15-2.17 2.75-1.42 3.16-.5zm-33.16 19.5l20-10m-20-10l20 10m0 0h-20" fill="#fff"/><path d="M1458.35 1837l3.3 1.7 2.6 2.6 1.7 3.3.6 3.8-.6 3.78-1.7 3.3-2.6 2.6-3.3 1.7-3.8.62-3.78-.6-3.3-1.72-2.6-2.6-1.7-3.3-.13-.8-17.6 8.78-1.76-3.53 12.5-6.26h-11.62v-3.95h11.63l-12.52-6.26 1.76-3.53 17.6 8.8.13-.82 1.7-3.3 2.6-2.6 3.3-1.7 3.8-.6zm-6.32 3.8l-2.2 1.14-1.73 1.73-1.13 2.2-.4 2.53.4 2.53 1.13 2.2 1.74 1.72 2.2 1.14 2.52.4 2.54-.4 2.2-1.15 1.72-1.73 1.13-2.2.4-2.52-.4-2.54-1.13-2.2-1.73-1.72-2.2-1.13-2.54-.4z" stroke="#5e5e5e" stroke-width=".05" fill="#5e5e5e"/><g><use xlink:href="#B" transform="matrix(1,0,0,1,1457.4590755837357,1869.0636574074074) translate(0 17.22222222222222)"/><use xlink:href="#C" transform="matrix(1,0,0,1,1457.4590755837357,1869.0636574074074) translate(0 38.732638888888886)"/></g><path d="M923.3 1842.32l.06.7.15.62.25.58.33.54.4.48.5.4.53.34.6.24.6.15.7.05h86.27v3.95h-86.4l-1.18-.1-1.23-.28-1.16-.5-1.06-.65-.95-.8-.82-.96-.66-1.08-.48-1.16-.3-1.2-.08-1.2v-166.44h3.95zm-6.72-410.74l1.22.3 1.16.47 1.06.65.96.82.8.95.67 1.07.47 1.15.3 1.2.1 1.18v215.13h-3.96v-214.96l-.06-.7-.14-.62-.25-.6-.3-.52-.43-.48-.47-.4-.54-.34-.58-.24-.62-.15-.7-.07h-57.6v-3.95h57.75z" stroke="#5e5e5e" stroke-width=".05" fill="#5e5e5e"/><path d="M849.64 1431.48h6.05v-8.02h3.94v20h-3.95v-8.03h-6.06v8.03h-3.95v-8.03h-8.03v-3.95h8.02v-8.02h3.94z" stroke="#5e5e5e" stroke-width=".05" fill="#5e5e5e"/><path d="M1025.93 1838.9l2.75 1.43 2.16 2.16 1.42 2.74.5 3.16-.5 3.16-1.42 2.74-2.16 2.17-2.75 1.42-3.16.5-3.16-.5-2.73-1.43-2.17-2.17-1.42-2.74-.5-3.16.5-3.16 1.42-2.75 2.17-2.17 2.74-1.42 3.17-.5zm26.84 19.5l-20-10m20-10l-20 10m0 0h20" fill="#fff"/><path d="M1026.56 1837l3.3 1.7 2.6 2.6 1.7 3.3.13.83 17.6-8.8 1.75 3.53-12.5 6.26h11.62v3.95h-11.63l12.5 6.26-1.75 3.53-17.6-8.8-.14.82-1.7 3.3-2.6 2.6-3.3 1.7-3.8.62-3.77-.6-3.3-1.72-2.6-2.6-1.72-3.3-.6-3.78.6-3.8 1.7-3.3 2.6-2.6 3.3-1.7 3.8-.6zm-6.32 3.8l-2.2 1.14-1.72 1.73-1.14 2.2-.4 2.53.4 2.53 1.14 2.2 1.73 1.72 2.2 1.14 2.52.4 2.54-.4 2.2-1.15 1.73-1.73 1.13-2.2.4-2.52-.4-2.54-1.13-2.2-1.73-1.72-2.2-1.13-2.53-.4z" stroke="#5e5e5e" stroke-width=".05" fill="#5e5e5e"/><g><use xlink:href="#D" transform="matrix(1,0,0,1,888.1302083333331,1654.5064328368223) translate(0 17.22222222222222)"/></g><defs><path fill="#fff" d="M180 0v-1490h908v168H370v486h669v168H370v500h727V0H180" id="E"/><path fill="#fff" d="M577 24c-279 0-473-224-473-580 0-354 195-576 474-576 218 0 287 134 324 193h14v-551h180V0H922v-173h-20C865-111 790 24 577 24zm27-161c203 0 314-172 314-421 0-247-108-413-314-413-212 0-317 181-317 413 0 235 108 421 317 421" id="F"/><path fill="#fff" d="M537 14c-226 0-379-139-379-422v-710h180v695c0 172 97 275 253 275 160 0 281-109 281-300v-670h181V0H879v-209C806-46 684 14 537 14" id="G"/><path fill="#fff" d="M613 24c-304 0-509-231-509-576 0-350 205-580 509-580 216 0 392 114 453 309l-173 49c-33-115-133-197-280-197-223 0-326 196-326 419 0 220 103 415 326 415 150 0 252-85 285-206l172 49C1010-95 832 24 613 24" id="H"/><path fill="#fff" d="M471 26C259 26 90-98 90-318c0-256 228-303 435-329 202-27 287-16 287-108 0-139-79-219-234-219-161 0-248 86-283 164l-173-57c86-203 278-265 451-265 150 0 419 46 419 395V0H815v-152h-12C765-73 660 26 471 26zm31-159c199 0 310-134 310-271v-155c-30 35-226 55-295 64-131 17-246 59-246 186 0 116 97 176 231 176" id="I"/><path fill="#fff" d="M598-1118v154H368v674c0 100 37 144 132 144 23 0 62-6 92-12L629-6c-37 13-88 20-134 20-193 0-307-107-307-290v-688H20v-154h168v-266h180v266h230" id="J"/><path fill="#fff" d="M158 0v-1118h180V0H158zm91-1301c-68 0-125-53-125-119s57-119 125-119c69 0 126 53 126 119s-57 119-126 119" id="K"/><path fill="#fff" d="M613 24c-304 0-509-231-509-576 0-350 205-580 509-580 305 0 511 230 511 580 0 345-206 576-511 576zm0-161c226 0 329-195 329-415 0-222-103-419-329-419-223 0-326 196-326 419 0 220 103 415 326 415" id="L"/><path fill="#fff" d="M338-670V0H158v-1118h173l1 207c72-158 192-221 342-221 226 0 378 139 378 422V0H872v-695c0-172-96-275-252-275-161 0-282 109-282 300" id="M"/><path fill="#fff" d="M338-1490V0H158v-1490h180" id="N"/><g id="b"><use transform="matrix(0.01953125,0,0,0.01953125,0,0)" xlink:href="#E"/><use transform="matrix(0.01953125,0,0,0.01953125,24.04296875,0)" xlink:href="#F"/><use transform="matrix(0.01953125,0,0,0.01953125,48.53515625,0)" xlink:href="#G"/><use transform="matrix(0.01953125,0,0,0.01953125,72.1875,0)" xlink:href="#H"/><use transform="matrix(0.01953125,0,0,0.01953125,95.4296875,0)" xlink:href="#I"/><use transform="matrix(0.01953125,0,0,0.01953125,117.890625,0)" xlink:href="#J"/><use transform="matrix(0.01953125,0,0,0.01953125,130.9765625,0)" xlink:href="#K"/><use transform="matrix(0.01953125,0,0,0.01953125,140.6640625,0)" xlink:href="#L"/><use transform="matrix(0.01953125,0,0,0.01953125,164.6484375,0)" xlink:href="#M"/><use transform="matrix(0.01953125,0,0,0.01953125,188.28125,0)" xlink:href="#I"/><use transform="matrix(0.01953125,0,0,0.01953125,210.7421875,0)" xlink:href="#N"/></g><path fill="#fff" d="M657 26c-323 0-524-166-541-416h195c15 169 171 246 346 246 202 0 356-106 356-265 5-203-294-238-475-293-239-73-380-191-380-389 0-252 224-419 512-419 294 0 499 171 508 396H992c-17-145-151-228-328-228-193 0-321 102-321 242 0 156 175 211 284 241l149 41c160 44 422 134 422 412 0 244-197 432-541 432" id="O"/><path fill="#fff" d="M140 405l46-156c120 36 205 19 263-150l32-93L54-1118h197c107 313 237 620 324 950 87-331 219-637 326-950h196L606 167c-68 178-176 259-334 259-64 0-113-12-132-21" id="P"/><path fill="#fff" d="M538 24C308 24 148-78 108-271l171-41c32 123 123 178 257 178 156 0 256-77 256-169 0-77-54-128-164-154l-186-44c-203-48-300-148-300-305 0-192 176-326 414-326 230 0 351 112 402 269l-163 42c-31-80-94-158-238-158-133 0-233 69-233 162 0 83 57 129 188 160l169 40c203 48 298 149 298 302 0 196-179 339-441 339" id="Q"/><path fill="#fff" d="M628 24c-324 0-524-230-524-574 0-343 198-582 503-582 237 0 487 146 487 559v75H286c9 234 145 362 343 362 132 0 231-58 273-172l174 48C1024-91 857 24 628 24zM287-650h624c-17-190-120-322-304-322-192 0-309 151-320 322" id="R"/><path fill="#fff" d="M158 0v-1118h175l1 205c55-151 181-225 313-225 147 0 245 90 285 228 53-141 190-228 352-228 194 0 352 125 352 384V0h-181v-749c0-161-105-225-225-225-151 0-243 103-243 244V0H807v-767c0-124-93-207-219-207-131 0-250 92-250 270V0H158" id="S"/><g id="c"><use transform="matrix(0.01953125,0,0,0.01953125,0,0)" xlink:href="#O"/><use transform="matrix(0.01953125,0,0,0.01953125,25.6640625,0)" xlink:href="#P"/><use transform="matrix(0.01953125,0,0,0.01953125,48.14453125,0)" xlink:href="#Q"/><use transform="matrix(0.01953125,0,0,0.01953125,69.2578125,0)" xlink:href="#J"/><use transform="matrix(0.01953125,0,0,0.01953125,81.953125,0)" xlink:href="#R"/><use transform="matrix(0.01953125,0,0,0.01953125,105.2734375,0)" xlink:href="#S"/></g><path d="M52 0l541-1490h220L1361 0h-200l-149-416H398L254 0H52zm404-582h497c-103-290-145-390-251-756-108 377-145 460-246 756" id="T"/><path d="M180 0v-1490h190v1322h690V0H180" id="U"/><path d="M763 24c-353 0-583-224-583-531v-983h190v968c0 214 149 370 393 370 243 0 391-156 391-370v-968h190v983c0 307-230 531-581 531" id="V"/><path d="M180 0v-1490h224l606 953c40 63 108 177 176 312-27-437-7-821-13-1265h190V0h-226C860-448 622-778 356-1262c27 476 11 792 15 1262H180" id="W"/><path d="M784 20c-382 0-662-292-662-764 0-473 280-766 662-766s660 293 660 766c0 472-278 764-660 764zm0-176c266 0 475-207 475-588 0-383-209-590-475-590-268 0-477 208-477 590 0 380 209 588 477 588" id="X"/><g id="d"><use transform="matrix(0.010850694444444444,0,0,0.010850694444444444,0,0)" xlink:href="#T"/><use transform="matrix(0.010850694444444444,0,0,0.010850694444444444,15.33203125,0)" xlink:href="#U"/><use transform="matrix(0.010850694444444444,0,0,0.010850694444444444,27.897135416666664,0)" xlink:href="#V"/><use transform="matrix(0.010850694444444444,0,0,0.010850694444444444,44.43359375,0)" xlink:href="#W"/><use transform="matrix(0.010850694444444444,0,0,0.010850694444444444,61.17621527777778,0)" xlink:href="#X"/></g><path d="M338-1490V0H158v-1490h180" id="Y"/><path d="M537 14c-226 0-379-139-379-422v-710h180v695c0 172 97 275 253 275 160 0 281-109 281-300v-670h181V0H879v-209C806-46 684 14 537 14" id="Z"/><path d="M338-670V0H158v-1118h173l1 207c72-158 192-221 342-221 226 0 378 139 378 422V0H872v-695c0-172-96-275-252-275-161 0-282 109-282 300" id="aa"/><path d="M613 24c-304 0-509-231-509-576 0-350 205-580 509-580 305 0 511 230 511 580 0 345-206 576-511 576zm0-161c226 0 329-195 329-415 0-222-103-419-329-419-223 0-326 196-326 419 0 220 103 415 326 415" id="ab"/><path d="M370-1490V0H180v-1490h190" id="ac"/><path d="M645 0H180v-1490h484c435 0 692 280 692 742 0 466-257 748-711 748zM370-168h263c363 0 539-218 539-580 0-358-176-574-521-574H370v1154" id="ad"/><g id="e"><use transform="matrix(0.010850694444444444,0,0,0.010850694444444444,0,0)" xlink:href="#T"/><use transform="matrix(0.010850694444444444,0,0,0.010850694444444444,15.33203125,0)" xlink:href="#Y"/><use transform="matrix(0.010850694444444444,0,0,0.010850694444444444,20.713975694444443,0)" xlink:href="#Z"/><use transform="matrix(0.010850694444444444,0,0,0.010850694444444444,33.854166666666664,0)" xlink:href="#aa"/><use transform="matrix(0.010850694444444444,0,0,0.010850694444444444,46.98350694444444,0)" xlink:href="#ab"/><use transform="matrix(0.010850694444444444,0,0,0.010850694444444444,60.30815972222222,0)" xlink:href="#ac"/><use transform="matrix(0.010850694444444444,0,0,0.010850694444444444,66.27604166666667,0)" xlink:href="#ad"/></g><path d="M180 0v-1490h510c348 0 508 209 508 474 0 266-160 477-507 477H370V0H180zm190-706h312c236 0 327-133 327-310 0-176-91-307-329-307H370v617" id="ae"/><path d="M180 0v-1490h190c0 262 1 526-3 784 217-279 467-523 702-784h249L716-845 1319 0h-225L585-716 370-489V0H180" id="af"/><g id="f"><use transform="matrix(0.010850694444444444,0,0,0.010850694444444444,0,0)" xlink:href="#ae"/><use transform="matrix(0.010850694444444444,0,0,0.010850694444444444,14.192708333333332,0)" xlink:href="#af"/></g><path d="M158 0v-1118h180V0H158zm91-1301c-68 0-125-53-125-119s57-119 125-119c69 0 126 53 126 119s-57 119-126 119" id="ag"/><path d="M598-1118v154H368v674c0 100 37 144 132 144 23 0 62-6 92-12L629-6c-37 13-88 20-134 20-193 0-307-107-307-290v-688H20v-154h168v-266h180v266h230" id="ah"/><g id="g"><use transform="matrix(0.010850694444444444,0,0,0.010850694444444444,0,0)" xlink:href="#ag"/><use transform="matrix(0.010850694444444444,0,0,0.010850694444444444,5.381944444444445,0)" xlink:href="#aa"/><use transform="matrix(0.010850694444444444,0,0,0.010850694444444444,18.51128472222222,0)" xlink:href="#ah"/></g><path d="M158 0v-1118h175l1 205c55-151 181-225 313-225 147 0 245 90 285 228 53-141 190-228 352-228 194 0 352 125 352 384V0h-181v-749c0-161-105-225-225-225-151 0-243 103-243 244V0H807v-767c0-124-93-207-219-207-131 0-250 92-250 270V0H158" id="ai"/><path d="M628 24c-324 0-524-230-524-574 0-343 198-582 503-582 237 0 487 146 487 559v75H286c9 234 145 362 343 362 132 0 231-58 273-172l174 48C1024-91 857 24 628 24zM287-650h624c-17-190-120-322-304-322-192 0-309 151-320 322" id="aj"/><g id="h"><use transform="matrix(0.010850694444444444,0,0,0.010850694444444444,0,0)" xlink:href="#W"/><use transform="matrix(0.010850694444444444,0,0,0.010850694444444444,16.74262152777778,0)" xlink:href="#ab"/><use transform="matrix(0.010850694444444444,0,0,0.010850694444444444,30.06727430555556,0)" xlink:href="#ai"/><use transform="matrix(0.010850694444444444,0,0,0.010850694444444444,49.533420138888886,0)" xlink:href="#aj"/></g><path d="M538 24C308 24 148-78 108-271l171-41c32 123 123 178 257 178 156 0 256-77 256-169 0-77-54-128-164-154l-186-44c-203-48-300-148-300-305 0-192 176-326 414-326 230 0 351 112 402 269l-163 42c-31-80-94-158-238-158-133 0-233 69-233 162 0 83 57 129 188 160l169 40c203 48 298 149 298 302 0 196-179 339-441 339" id="ak"/><path d="M158 0v-1118h174v172h12c41-113 157-188 290-188 26 0 70 2 91 3v181c-11-2-60-10-108-10-161 0-279 109-279 260V0H158" id="al"/><path d="M611 442c-248 0-391-105-460-228l146-94c47 65 117 165 314 165 178 0 307-82 307-266v-224h-17C863-141 792-18 576-18c-268 0-472-195-472-546 0-346 197-568 476-568 216 0 288 133 326 193h17v-179h175V29c0 289-215 413-487 413zm-5-620c203 0 314-146 314-390 0-237-108-403-314-403-213 0-319 180-319 403 0 230 109 390 319 390" id="am"/><g id="i"><use transform="matrix(0.010850694444444444,0,0,0.010850694444444444,0,0)" xlink:href="#ak"/><use transform="matrix(0.010850694444444444,0,0,0.010850694444444444,11.729600694444445,0)" xlink:href="#ah"/><use transform="matrix(0.010850694444444444,0,0,0.010850694444444444,18.99956597222222,0)" xlink:href="#al"/><use transform="matrix(0.010850694444444444,0,0,0.010850694444444444,27.712673611111104,0)" xlink:href="#ag"/><use transform="matrix(0.010850694444444444,0,0,0.010850694444444444,33.09461805555555,0)" xlink:href="#aa"/><use transform="matrix(0.010850694444444444,0,0,0.010850694444444444,46.22395833333333,0)" xlink:href="#am"/></g><path d="M180 0v-1490h908v168H370v486h669v168H370v500h727V0H180" id="an"/><path d="M471 26C259 26 90-98 90-318c0-256 228-303 435-329 202-27 287-16 287-108 0-139-79-219-234-219-161 0-248 86-283 164l-173-57c86-203 278-265 451-265 150 0 419 46 419 395V0H815v-152h-12C765-73 660 26 471 26zm31-159c199 0 310-134 310-271v-155c-30 35-226 55-295 64-131 17-246 59-246 186 0 116 97 176 231 176" id="ao"/><g id="j"><use transform="matrix(0.010850694444444444,0,0,0.010850694444444444,0,0)" xlink:href="#an"/><use transform="matrix(0.010850694444444444,0,0,0.010850694444444444,13.35720486111111,0)" xlink:href="#ai"/><use transform="matrix(0.010850694444444444,0,0,0.010850694444444444,32.82335069444444,0)" xlink:href="#ao"/><use transform="matrix(0.010850694444444444,0,0,0.010850694444444444,45.30164930555556,0)" xlink:href="#ag"/><use transform="matrix(0.010850694444444444,0,0,0.010850694444444444,50.68359375,0)" xlink:href="#Y"/></g><path d="M613 24c-304 0-509-231-509-576 0-350 205-580 509-580 216 0 392 114 453 309l-173 49c-33-115-133-197-280-197-223 0-326 196-326 419 0 220 103 415 326 415 150 0 252-85 285-206l172 49C1010-95 832 24 613 24" id="ap"/><g id="k"><use transform="matrix(0.010850694444444444,0,0,0.010850694444444444,0,0)" xlink:href="#ad"/><use transform="matrix(0.010850694444444444,0,0,0.010850694444444444,16.03732638888889,0)" xlink:href="#ao"/><use transform="matrix(0.010850694444444444,0,0,0.010850694444444444,28.515625,0)" xlink:href="#ah"/><use transform="matrix(0.010850694444444444,0,0,0.010850694444444444,35.89409722222222,0)" xlink:href="#ao"/><use transform="matrix(0.010850694444444444,0,0,0.010850694444444444,48.37239583333333,0)" xlink:href="#W"/><use transform="matrix(0.010850694444444444,0,0,0.010850694444444444,65.11501736111111,0)" xlink:href="#ao"/><use transform="matrix(0.010850694444444444,0,0,0.010850694444444444,77.59331597222223,0)" xlink:href="#ak"/><use transform="matrix(0.010850694444444444,0,0,0.010850694444444444,89.32291666666666,0)" xlink:href="#ap"/><use transform="matrix(0.010850694444444444,0,0,0.010850694444444444,102.01822916666666,0)" xlink:href="#ag"/><use transform="matrix(0.010850694444444444,0,0,0.010850694444444444,107.40017361111111,0)" xlink:href="#ai"/><use transform="matrix(0.010850694444444444,0,0,0.010850694444444444,126.86631944444444,0)" xlink:href="#aj"/><use transform="matrix(0.010850694444444444,0,0,0.010850694444444444,139.82204861111111,0)" xlink:href="#aa"/><use transform="matrix(0.010850694444444444,0,0,0.010850694444444444,152.95138888888889,0)" xlink:href="#ah"/><use transform="matrix(0.010850694444444444,0,0,0.010850694444444444,160.00434027777777,0)" xlink:href="#ab"/></g><path d="M577 24c-279 0-473-224-473-580 0-354 195-576 474-576 218 0 287 134 324 193h14v-551h180V0H922v-173h-20C865-111 790 24 577 24zm27-161c203 0 314-172 314-421 0-247-108-413-314-413-212 0-317 181-317 413 0 235 108 421 317 421" id="aq"/><g id="l"><use transform="matrix(0.010850694444444444,0,0,0.010850694444444444,0,0)" xlink:href="#aq"/><use transform="matrix(0.010850694444444444,0,0,0.010850694444444444,13.606770833333332,0)" xlink:href="#ao"/><use transform="matrix(0.010850694444444444,0,0,0.010850694444444444,26.085069444444443,0)" xlink:href="#ah"/><use transform="matrix(0.010850694444444444,0,0,0.010850694444444444,33.13802083333333,0)" xlink:href="#aj"/></g><path d="M180 0v-1490h510c348 0 508 194 508 460 0 198-88 351-276 417L1256 0h-220L726-579c-117 2-238 0-356 1V0H180zm190-747h312c235 0 327-108 327-283 0-177-92-293-329-293H370v576" id="ar"/><path d="M180 0v-1490h901v168H370v510h643v168H370V0H180" id="as"/><path d="M657 26c-323 0-524-166-541-416h195c15 169 171 246 346 246 202 0 356-106 356-265 5-203-294-238-475-293-239-73-380-191-380-389 0-252 224-419 512-419 294 0 499 171 508 396H992c-17-145-151-228-328-228-193 0-321 102-321 242 0 156 175 211 284 241l149 41c160 44 422 134 422 412 0 244-197 432-541 432" id="at"/><g id="m"><use transform="matrix(0.010850694444444444,0,0,0.010850694444444444,0,0)" xlink:href="#ae"/><use transform="matrix(0.010850694444444444,0,0,0.010850694444444444,14.192708333333332,0)" xlink:href="#ar"/><use transform="matrix(0.010850694444444444,0,0,0.010850694444444444,28.493923611111104,0)" xlink:href="#X"/><use transform="matrix(0.010850694444444444,0,0,0.010850694444444444,45.48611111111111,0)" xlink:href="#as"/><use transform="matrix(0.010850694444444444,0,0,0.010850694444444444,58.60460069444444,0)" xlink:href="#an"/><use transform="matrix(0.010850694444444444,0,0,0.010850694444444444,71.96180555555556,0)" xlink:href="#at"/><use transform="matrix(0.010850694444444444,0,0,0.010850694444444444,86.21961805555556,0)" xlink:href="#at"/><use transform="matrix(0.010850694444444444,0,0,0.010850694444444444,100.47743055555556,0)" xlink:href="#X"/><use transform="matrix(0.010850694444444444,0,0,0.010850694444444444,117.46961805555556,0)" xlink:href="#ar"/></g><path d="M678-1118v154H420V0H240v-964H20v-154h220v-149c0-194 155-293 318-293 85 0 141 18 168 30l-50 154c-19-6-47-17-97-17-111 0-159 58-159 166v109h258" id="au"/><g id="n"><use transform="matrix(0.010850694444444444,0,0,0.010850694444444444,0,0)" xlink:href="#ae"/><use transform="matrix(0.010850694444444444,0,0,0.010850694444444444,14.192708333333332,0)" xlink:href="#al"/><use transform="matrix(0.010850694444444444,0,0,0.010850694444444444,22.189670138888886,0)" xlink:href="#ab"/><use transform="matrix(0.010850694444444444,0,0,0.010850694444444444,35.514322916666664,0)" xlink:href="#au"/><use transform="matrix(0.010850694444444444,0,0,0.010850694444444444,43.088107638888886,0)" xlink:href="#aj"/><use transform="matrix(0.010850694444444444,0,0,0.010850694444444444,56.04383680555555,0)" xlink:href="#ak"/><use transform="matrix(0.010850694444444444,0,0,0.010850694444444444,67.7734375,0)" xlink:href="#ak"/><use transform="matrix(0.010850694444444444,0,0,0.010850694444444444,79.50303819444444,0)" xlink:href="#ab"/><use transform="matrix(0.010850694444444444,0,0,0.010850694444444444,92.82769097222221,0)" xlink:href="#al"/><use transform="matrix(0.010850694444444444,0,0,0.010850694444444444,101.54079861111111,0)" xlink:href="#ac"/><use transform="matrix(0.010850694444444444,0,0,0.010850694444444444,107.50868055555556,0)" xlink:href="#ad"/></g><path d="M158 418v-1536h174v179h20c37-59 106-193 324-193 279 0 474 222 474 576 0 356-194 580-473 580-213 0-288-135-325-197h-14v591H158zm492-555c209 0 317-186 317-421 0-232-105-413-317-413-206 0-314 166-314 413 0 249 111 421 314 421" id="av"/><g id="o"><use transform="matrix(0.010850694444444444,0,0,0.010850694444444444,0,0)" xlink:href="#ad"/><use transform="matrix(0.010850694444444444,0,0,0.010850694444444444,16.03732638888889,0)" xlink:href="#aj"/><use transform="matrix(0.010850694444444444,0,0,0.010850694444444444,28.99305555555556,0)" xlink:href="#av"/><use transform="matrix(0.010850694444444444,0,0,0.010850694444444444,42.81684027777778,0)" xlink:href="#ao"/><use transform="matrix(0.010850694444444444,0,0,0.010850694444444444,55.295138888888886,0)" xlink:href="#al"/><use transform="matrix(0.010850694444444444,0,0,0.010850694444444444,64.00824652777777,0)" xlink:href="#ah"/><use transform="matrix(0.010850694444444444,0,0,0.010850694444444444,71.38671874999999,0)" xlink:href="#ao"/><use transform="matrix(0.010850694444444444,0,0,0.010850694444444444,83.8650173611111,0)" xlink:href="#ai"/><use transform="matrix(0.010850694444444444,0,0,0.010850694444444444,103.33116319444441,0)" xlink:href="#aj"/><use transform="matrix(0.010850694444444444,0,0,0.010850694444444444,116.2868923611111,0)" xlink:href="#aa"/><use transform="matrix(0.010850694444444444,0,0,0.010850694444444444,129.41623263888889,0)" xlink:href="#ah"/><use transform="matrix(0.010850694444444444,0,0,0.010850694444444444,136.46918402777777,0)" xlink:href="#ab"/></g><path d="M783 20c-382 0-661-292-661-764 0-473 279-766 661-766 302 0 548 182 601 489h-190c-42-204-217-313-411-313-268 0-476 208-476 590 0 381 209 588 476 588 195 0 369-110 411-313h190c-52 303-296 489-601 489" id="aw"/><g id="p"><use transform="matrix(0.010850694444444444,0,0,0.010850694444444444,0,0)" xlink:href="#ad"/><use transform="matrix(0.010850694444444444,0,0,0.010850694444444444,16.03732638888889,0)" xlink:href="#ac"/><use transform="matrix(0.010850694444444444,0,0,0.010850694444444444,22.005208333333336,0)" xlink:href="#at"/><use transform="matrix(0.010850694444444444,0,0,0.010850694444444444,36.263020833333336,0)" xlink:href="#aw"/><use transform="matrix(0.010850694444444444,0,0,0.010850694444444444,52.49565972222223,0)" xlink:href="#ac"/><use transform="matrix(0.010850694444444444,0,0,0.010850694444444444,58.46354166666667,0)" xlink:href="#ae"/><use transform="matrix(0.010850694444444444,0,0,0.010850694444444444,72.65625,0)" xlink:href="#U"/><use transform="matrix(0.010850694444444444,0,0,0.010850694444444444,85.22135416666667,0)" xlink:href="#ac"/><use transform="matrix(0.010850694444444444,0,0,0.010850694444444444,91.18923611111111,0)" xlink:href="#W"/><use transform="matrix(0.010850694444444444,0,0,0.010850694444444444,107.93185763888889,0)" xlink:href="#T"/></g><g id="q"><use transform="matrix(0.010850694444444444,0,0,0.010850694444444444,0,0)" xlink:href="#ad"/><use transform="matrix(0.010850694444444444,0,0,0.010850694444444444,16.03732638888889,0)" xlink:href="#ag"/><use transform="matrix(0.010850694444444444,0,0,0.010850694444444444,21.419270833333336,0)" xlink:href="#ak"/><use transform="matrix(0.010850694444444444,0,0,0.010850694444444444,33.14887152777778,0)" xlink:href="#ap"/><use transform="matrix(0.010850694444444444,0,0,0.010850694444444444,45.84418402777778,0)" xlink:href="#ag"/><use transform="matrix(0.010850694444444444,0,0,0.010850694444444444,51.22612847222222,0)" xlink:href="#av"/><use transform="matrix(0.010850694444444444,0,0,0.010850694444444444,64.83289930555556,0)" xlink:href="#Y"/><use transform="matrix(0.010850694444444444,0,0,0.010850694444444444,70.21484375,0)" xlink:href="#ag"/><use transform="matrix(0.010850694444444444,0,0,0.010850694444444444,75.59678819444444,0)" xlink:href="#aa"/><use transform="matrix(0.010850694444444444,0,0,0.010850694444444444,88.72612847222221,0)" xlink:href="#ao"/><use transform="matrix(0.010850694444444444,0,0,0.010850694444444444,101.20442708333333,0)" xlink:href="#ac"/><use transform="matrix(0.010850694444444444,0,0,0.010850694444444444,107.17230902777777,0)" xlink:href="#ad"/></g><path d="M180 0v-1490h190v644h782v-644h190V0h-190v-678H370V0H180" id="ax"/><g id="r"><use transform="matrix(0.010850694444444444,0,0,0.010850694444444444,0,0)" xlink:href="#aw"/><use transform="matrix(0.010850694444444444,0,0,0.010850694444444444,16.23263888888889,0)" xlink:href="#ao"/><use transform="matrix(0.010850694444444444,0,0,0.010850694444444444,28.7109375,0)" xlink:href="#al"/><use transform="matrix(0.010850694444444444,0,0,0.010850694444444444,36.70789930555556,0)" xlink:href="#am"/><use transform="matrix(0.010850694444444444,0,0,0.010850694444444444,50.33637152777778,0)" xlink:href="#ao"/><use transform="matrix(0.010850694444444444,0,0,0.010850694444444444,62.814670138888886,0)" xlink:href="#ax"/><use transform="matrix(0.010850694444444444,0,0,0.010850694444444444,79.32942708333333,0)" xlink:href="#ab"/><use transform="matrix(0.010850694444444444,0,0,0.010850694444444444,92.65407986111111,0)" xlink:href="#al"/><use transform="matrix(0.010850694444444444,0,0,0.010850694444444444,101.01996527777777,0)" xlink:href="#ao"/><use transform="matrix(0.010850694444444444,0,0,0.010850694444444444,113.49826388888889,0)" xlink:href="#al"/><use transform="matrix(0.010850694444444444,0,0,0.010850694444444444,122.2113715277778,0)" xlink:href="#ag"/><use transform="matrix(0.010850694444444444,0,0,0.010850694444444444,127.59331597222224,0)" xlink:href="#ao"/></g><path d="M98-1322v-168h1126v168H757V0H567v-1322H98" id="ay"/><g id="s"><use transform="matrix(0.010850694444444444,0,0,0.010850694444444444,0,0)" xlink:href="#W"/><use transform="matrix(0.010850694444444444,0,0,0.010850694444444444,16.74262152777778,0)" xlink:href="#X"/><use transform="matrix(0.010850694444444444,0,0,0.010850694444444444,33.07291666666667,0)" xlink:href="#ay"/><use transform="matrix(0.010850694444444444,0,0,0.010850694444444444,45.5295138888889,0)" xlink:href="#T"/></g><g id="t"><use transform="matrix(0.010850694444444444,0,0,0.010850694444444444,0,0)" xlink:href="#W"/><use transform="matrix(0.010850694444444444,0,0,0.010850694444444444,16.74262152777778,0)" xlink:href="#ab"/><use transform="matrix(0.010850694444444444,0,0,0.010850694444444444,30.06727430555556,0)" xlink:href="#ah"/><use transform="matrix(0.010850694444444444,0,0,0.010850694444444444,37.44574652777778,0)" xlink:href="#ao"/><use transform="matrix(0.010850694444444444,0,0,0.010850694444444444,49.924045138888886,0)" xlink:href="#ac"/><use transform="matrix(0.010850694444444444,0,0,0.010850694444444444,55.89192708333333,0)" xlink:href="#ad"/></g><path d="M600 0L52-1490h200c166 485 304 806 458 1336 156-533 285-846 449-1336h202L819 0H600" id="az"/><g id="u"><use transform="matrix(0.010850694444444444,0,0,0.010850694444444444,0,0)" xlink:href="#az"/><use transform="matrix(0.010850694444444444,0,0,0.010850694444444444,14.20355902777778,0)" xlink:href="#ao"/><use transform="matrix(0.010850694444444444,0,0,0.010850694444444444,26.68185763888889,0)" xlink:href="#Y"/><use transform="matrix(0.010850694444444444,0,0,0.010850694444444444,32.063802083333336,0)" xlink:href="#ab"/><use transform="matrix(0.010850694444444444,0,0,0.010850694444444444,45.38845486111111,0)" xlink:href="#al"/></g><g id="v"><use transform="matrix(0.010850694444444444,0,0,0.010850694444444444,0,0)" xlink:href="#au"/><use transform="matrix(0.010850694444444444,0,0,0.010850694444444444,8.22482638888889,0)" xlink:href="#Y"/><use transform="matrix(0.010850694444444444,0,0,0.010850694444444444,13.606770833333332,0)" xlink:href="#ab"/><use transform="matrix(0.010850694444444444,0,0,0.010850694444444444,27.1484375,0)" xlink:href="#ao"/><use transform="matrix(0.010850694444444444,0,0,0.010850694444444444,39.626736111111114,0)" xlink:href="#ah"/></g><g id="w"><use transform="matrix(0.010850694444444444,0,0,0.010850694444444444,0,0)" xlink:href="#ad"/><use transform="matrix(0.010850694444444444,0,0,0.010850694444444444,16.03732638888889,0)" xlink:href="#ao"/><use transform="matrix(0.010850694444444444,0,0,0.010850694444444444,28.515625,0)" xlink:href="#ah"/><use transform="matrix(0.010850694444444444,0,0,0.010850694444444444,35.89409722222222,0)" xlink:href="#ao"/><use transform="matrix(0.010850694444444444,0,0,0.010850694444444444,48.37239583333333,0)" xlink:href="#U"/><use transform="matrix(0.010850694444444444,0,0,0.010850694444444444,60.937499999999986,0)" xlink:href="#ao"/><use transform="matrix(0.010850694444444444,0,0,0.010850694444444444,73.4157986111111,0)" xlink:href="#aa"/><use transform="matrix(0.010850694444444444,0,0,0.010850694444444444,86.54513888888887,0)" xlink:href="#ap"/><use transform="matrix(0.010850694444444444,0,0,0.010850694444444444,99.45746527777776,0)" xlink:href="#ao"/><use transform="matrix(0.010850694444444444,0,0,0.010850694444444444,111.93576388888887,0)" xlink:href="#ai"/><use transform="matrix(0.010850694444444444,0,0,0.010850694444444444,131.4019097222222,0)" xlink:href="#aj"/><use transform="matrix(0.010850694444444444,0,0,0.010850694444444444,144.35763888888886,0)" xlink:href="#aa"/><use transform="matrix(0.010850694444444444,0,0,0.010850694444444444,157.48697916666663,0)" xlink:href="#ah"/><use transform="matrix(0.010850694444444444,0,0,0.010850694444444444,164.53993055555551,0)" xlink:href="#ab"/></g><g id="x"><use transform="matrix(0.010850694444444444,0,0,0.010850694444444444,0,0)" xlink:href="#as"/><use transform="matrix(0.010850694444444444,0,0,0.010850694444444444,13.118489583333332,0)" xlink:href="#af"/></g><g id="y"><use transform="matrix(0.010850694444444444,0,0,0.010850694444444444,0,0)" xlink:href="#ad"/><use transform="matrix(0.010850694444444444,0,0,0.010850694444444444,16.03732638888889,0)" xlink:href="#ag"/><use transform="matrix(0.010850694444444444,0,0,0.010850694444444444,21.419270833333336,0)" xlink:href="#ak"/><use transform="matrix(0.010850694444444444,0,0,0.010850694444444444,33.14887152777778,0)" xlink:href="#ap"/><use transform="matrix(0.010850694444444444,0,0,0.010850694444444444,45.84418402777778,0)" xlink:href="#ag"/><use transform="matrix(0.010850694444444444,0,0,0.010850694444444444,51.22612847222222,0)" xlink:href="#av"/><use transform="matrix(0.010850694444444444,0,0,0.010850694444444444,64.83289930555556,0)" xlink:href="#Y"/><use transform="matrix(0.010850694444444444,0,0,0.010850694444444444,70.21484375,0)" xlink:href="#ag"/><use transform="matrix(0.010850694444444444,0,0,0.010850694444444444,75.59678819444444,0)" xlink:href="#aa"/><use transform="matrix(0.010850694444444444,0,0,0.010850694444444444,88.72612847222221,0)" xlink:href="#ao"/><use transform="matrix(0.010850694444444444,0,0,0.010850694444444444,101.20442708333333,0)" xlink:href="#ac"/><use transform="matrix(0.010850694444444444,0,0,0.010850694444444444,107.17230902777777,0)" xlink:href="#ad"/></g><g id="z"><use transform="matrix(0.010850694444444444,0,0,0.010850694444444444,0,0)" xlink:href="#ae"/><use transform="matrix(0.010850694444444444,0,0,0.010850694444444444,14.192708333333332,0)" xlink:href="#al"/><use transform="matrix(0.010850694444444444,0,0,0.010850694444444444,22.189670138888886,0)" xlink:href="#ab"/><use transform="matrix(0.010850694444444444,0,0,0.010850694444444444,35.514322916666664,0)" xlink:href="#au"/><use transform="matrix(0.010850694444444444,0,0,0.010850694444444444,43.088107638888886,0)" xlink:href="#aj"/><use transform="matrix(0.010850694444444444,0,0,0.010850694444444444,56.04383680555555,0)" xlink:href="#ak"/><use transform="matrix(0.010850694444444444,0,0,0.010850694444444444,67.7734375,0)" xlink:href="#ak"/><use transform="matrix(0.010850694444444444,0,0,0.010850694444444444,79.50303819444444,0)" xlink:href="#ab"/><use transform="matrix(0.010850694444444444,0,0,0.010850694444444444,92.82769097222221,0)" xlink:href="#al"/><use transform="matrix(0.010850694444444444,0,0,0.010850694444444444,101.54079861111111,0)" xlink:href="#ac"/><use transform="matrix(0.010850694444444444,0,0,0.010850694444444444,107.50868055555556,0)" xlink:href="#ad"/></g><path d="M233-870l-31-620h289l-30 620H233zm435 0l-30-620h289l-30 620H668" id="aA"/><path d="M683-1118v229H474v562c0 71 29 104 102 104 23 0 73-7 95-13l43 225C647 9 580 16 520 16 296 16 174-96 174-301v-588H20v-229h154v-266h300v266h209" id="aB"/><path d="M633 22C291 22 81-200 81-553c0-345 210-579 537-579 292 0 525 185 525 567v84H378c7 183 109 277 260 277 105 0 184-46 216-132l272 51C1071-99 893 22 633 22zM380-669h474c-15-146-94-237-233-237-143 0-229 99-241 237" id="aC"/><path d="M128 0v-1118h278l12 217c60-163 185-234 319-234 143 0 236 81 288 251 63-172 205-251 359-251 205 0 357 138 357 381V0h-301v-697c0-126-76-187-177-187-114 0-184 79-184 196V0H789v-705c0-109-72-179-174-179-106 0-187 74-187 208V0H128" id="aD"/><g id="A"><use transform="matrix(0.008680555555555556,0,0,0.008680555555555556,0,0)" xlink:href="#aA"/><use transform="matrix(0.008680555555555556,0,0,0.008680555555555556,9.809027777777779,0)" xlink:href="#aB"/><use transform="matrix(0.008680555555555556,0,0,0.008680555555555556,16.145833333333336,0)" xlink:href="#aC"/><use transform="matrix(0.008680555555555556,0,0,0.008680555555555556,26.73611111111111,0)" xlink:href="#aD"/><use transform="matrix(0.008680555555555556,0,0,0.008680555555555556,42.58680555555556,0)" xlink:href="#aA"/></g><path d="M128 418v-1536h295v188h14c41-89 129-202 319-202 248 0 453 193 453 575 0 372-197 576-455 576-183 0-275-108-317-198h-9v597H128zm534-640c156 0 240-139 240-336 0-196-83-334-240-334-154 0-241 131-241 334 0 202 88 336 241 336" id="aE"/><path d="M128 0v-1118h290v195h12c54-169 184-238 367-200v268c-27-8-86-15-130-15-138 0-239 95-239 234V0H128" id="aF"/><path d="M428-647V0H128v-1118h283l4 231c63-156 176-245 348-245 232 0 384 159 384 421V0H847v-659c0-139-76-222-202-222-128 0-217 86-217 234" id="aG"/><path d="M628 22C291 22 81-210 81-554c0-346 210-578 547-578 265 0 455 142 497 372l-279 52c-25-116-99-188-215-188-160 0-244 139-244 341 0 200 84 341 244 341 116 0 193-74 217-195l279 51C1085-123 896 22 628 22" id="aH"/><g id="B"><use transform="matrix(0.008680555555555556,0,0,0.008680555555555556,0,0)" xlink:href="#aA"/><use transform="matrix(0.008680555555555556,0,0,0.008680555555555556,9.809027777777779,0)" xlink:href="#aE"/><use transform="matrix(0.008680555555555556,0,0,0.008680555555555556,21.015625,0)" xlink:href="#aC"/><use transform="matrix(0.008680555555555556,0,0,0.008680555555555556,31.60590277777778,0)" xlink:href="#aF"/><use transform="matrix(0.008680555555555556,0,0,0.008680555555555556,39.192708333333336,0)" xlink:href="#aB"/><use transform="matrix(0.008680555555555556,0,0,0.008680555555555556,45.529513888888886,0)" xlink:href="#aC"/><use transform="matrix(0.008680555555555556,0,0,0.008680555555555556,56.119791666666664,0)" xlink:href="#aG"/><use transform="matrix(0.008680555555555556,0,0,0.008680555555555556,67.1875,0)" xlink:href="#aH"/><use transform="matrix(0.008680555555555556,0,0,0.008680555555555556,77.64756944444444,0)" xlink:href="#aC"/></g><path d="M440 22C227 22 68-92 68-313c0-250 202-322 422-343 195-21 271-24 271-105 0-95-63-149-175-149-116 0-187 57-211 129l-275-46c57-194 237-305 487-305 240 0 474 108 474 379V0H777v-155h-10C713-51 605 22 440 22zm85-211c140 0 238-93 238-211v-121c-37 26-156 42-222 51-111 16-185 59-185 149 0 87 70 132 169 132" id="aI"/><g id="C"><use transform="matrix(0.008680555555555556,0,0,0.008680555555555556,0,0)" xlink:href="#aI"/><use transform="matrix(0.008680555555555556,0,0,0.008680555555555556,9.947916666666664,0)" xlink:href="#aA"/></g><path d="M428-1490V0H128v-1490h300" id="aJ"/><path d="M499 418V299c80-5 216 24 216-62 0-44-25-60-89-60h-91l26-158C264-10 81-233 81-554c0-346 210-578 547-578 265 0 455 142 497 372l-279 52c-25-116-99-188-215-188-160 0-244 139-244 341 0 200 84 341 244 341 116 0 193-74 217-195l279 51C1088-140 923 0 685 20l-4 68c126-6 197 51 197 157 0 123-72 173-239 173H499" id="aK"/><g id="D"><use transform="matrix(0.008680555555555556,0,0,0.008680555555555556,0,0)" xlink:href="#aA"/><use transform="matrix(0.008680555555555556,0,0,0.008680555555555556,9.809027777777779,0)" xlink:href="#aJ"/><use transform="matrix(0.008680555555555556,0,0,0.008680555555555556,14.626736111111112,0)" xlink:href="#aI"/><use transform="matrix(0.008680555555555556,0,0,0.008680555555555556,24.947916666666668,0)" xlink:href="#aG"/><use transform="matrix(0.008680555555555556,0,0,0.008680555555555556,36.015625,0)" xlink:href="#aK"/><use transform="matrix(0.008680555555555556,0,0,0.008680555555555556,46.64930555555556,0)" xlink:href="#aI"/><use transform="matrix(0.008680555555555556,0,0,0.008680555555555556,56.59722222222222,0)" xlink:href="#aA"/></g></defs></g></svg>